<svg xmlns="http://www.w3.org/2000/svg" viewBox="0 0 100 100" fill="none">
  <!-- Background circle -->
  <circle cx="50" cy="50" r="48" fill="#2563EB"/>

  <!-- Chassis/Vehicle frame -->
  <rect x="20" y="38" width="60" height="24" rx="4" fill="white"/>

  <!-- VIN barcode lines -->
  <rect x="26" y="44" width="2" height="12" fill="#2563EB"/>
  <rect x="30" y="44" width="4" height="12" fill="#2563EB"/>
  <rect x="36" y="44" width="2" height="12" fill="#2563EB"/>
  <rect x="40" y="44" width="3" height="12" fill="#2563EB"/>
  <rect x="45" y="44" width="2" height="12" fill="#2563EB"/>
  <rect x="49" y="44" width="4" height="12" fill="#2563EB"/>
  <rect x="55" y="44" width="2" height="12" fill="#2563EB"/>
  <rect x="59" y="44" width="3" height="12" fill="#2563EB"/>
  <rect x="64" y="44" width="2" height="12" fill="#2563EB"/>
  <rect x="68" y="44" width="4" height="12" fill="#2563EB"/>

  <!-- Wheels -->
  <circle cx="30" cy="62" r="8" fill="#1E40AF"/>
  <circle cx="30" cy="62" r="4" fill="white"/>
  <circle cx="70" cy="62" r="8" fill="#1E40AF"/>
  <circle cx="70" cy="62" r="4" fill="white"/>
</svg>
